# xmcd
#
# Track frame offsets:
#	150
#	13430
#	23454
#	33348
#	44206
#	55450
#	70295
#	79500
#	89297
#	101608
#
# Disc length: 1542 seconds
#
# Revision: 0
# Processed by: cddbd v1.5.2PL0 Copyright (c) Steve Scherf et al.
# Submitted via: audiograbber 1.83.01
#
DISCID=8006040a
DTITLE=Various Artist - Música Universal.... La Colección "Country" [CD1]
DYEAR=2000
DGENRE=Country
TTITLE0=Lynn Anderson - The Rose Garden
TTITLE1=Dolly Parton - Release Me
TTITLE2=Johnny Cash - Ballad of a Teenage Queen
TTITLE3=Hank Locklin - Send me the Pillow
TTITLE4=Jim Reeves - Am I Losing You
TTITLE5=Willie Nelson - And So You My Love
TTITLE6=Frankie Lane - Rawhide
TTITLE7=Buck Owens - I Got the Tiger by the Tail
TTITLE8=Patsy Cline - Crazy
TTITLE9=Ricky Skaggs - Another Song, Another Drink
EXTD=Submitted by @thantelius
EXTT0=
EXTT1=
EXTT2=
EXTT3=
EXTT4=
EXTT5=
EXTT6=
EXTT7=
EXTT8=
EXTT9=
PLAYORDER=
